<svg width="14" height="14" viewBox="0 0 14 14" fill="none" xmlns="http://www.w3.org/2000/svg">
<path d="M0.488281 2.09922C0.488281 1.32602 1.11508 0.699219 1.88828 0.699219H4.68828C5.46148 0.699219 6.08828 1.32602 6.08828 2.09922V4.89922C6.08828 5.67242 5.46148 6.29922 4.68828 6.29922H1.88828C1.11508 6.29922 0.488281 5.67242 0.488281 4.89922V2.09922ZM4.68828 2.09922H1.88828V4.89922H4.68828V2.09922ZM7.48828 2.09922C7.48828 1.32602 8.11508 0.699219 8.88828 0.699219H11.6883C12.4615 0.699219 13.0883 1.32602 13.0883 2.09922V4.89922C13.0883 5.67242 12.4615 6.29922 11.6883 6.29922H8.88828C8.11508 6.29922 7.48828 5.67242 7.48828 4.89922V2.09922ZM11.6883 2.09922H8.88828V4.89922H11.6883V2.09922ZM0.488281 9.09922C0.488281 8.32602 1.11508 7.69922 1.88828 7.69922H4.68828C5.46148 7.69922 6.08828 8.32602 6.08828 9.09922V11.8992C6.08828 12.6724 5.46148 13.2992 4.68828 13.2992H1.88828C1.11508 13.2992 0.488281 12.6724 0.488281 11.8992V9.09922ZM4.68828 9.09922H1.88828V11.8992H4.68828V9.09922ZM7.48828 9.09922C7.48828 8.32602 8.11508 7.69922 8.88828 7.69922H11.6883C12.4615 7.69922 13.0883 8.32602 13.0883 9.09922V11.8992C13.0883 12.6724 12.4615 13.2992 11.6883 13.2992H8.88828C8.11508 13.2992 7.48828 12.6724 7.48828 11.8992V9.09922ZM11.6883 9.09922H8.88828V11.8992H11.6883V9.09922Z" fill="#0040B0"/>
</svg>
