<svg width="15" height="14" viewBox="0 0 15 14" fill="none" xmlns="http://www.w3.org/2000/svg">
<path d="M2.53906 13.125C2.05781 13.125 1.66406 12.7312 1.66406 12.25C1.66406 11.7688 2.05781 11.375 2.53906 11.375C3.02031 11.375 3.41406 11.7688 3.41406 12.25C3.41406 12.7312 3.02031 13.125 2.53906 13.125ZM13.2141 12.775H5.86406C5.47906 12.775 5.16406 12.46 5.16406 12.075C5.16406 11.69 5.47906 11.375 5.86406 11.375H13.2141C13.5991 11.375 13.9141 11.69 13.9141 12.075C13.9141 12.46 13.5991 12.775 13.2141 12.775ZM2.53906 9.625C2.05781 9.625 1.66406 9.23125 1.66406 8.75C1.66406 8.26875 2.05781 7.875 2.53906 7.875C3.02031 7.875 3.41406 8.26875 3.41406 8.75C3.41406 9.23125 3.02031 9.625 2.53906 9.625ZM13.2141 9.275H5.86406C5.47906 9.275 5.16406 8.96 5.16406 8.575C5.16406 8.19 5.47906 7.875 5.86406 7.875H13.2141C13.5991 7.875 13.9141 8.19 13.9141 8.575C13.9141 8.96 13.5991 9.275 13.2141 9.275ZM2.53906 6.125C2.05781 6.125 1.66406 5.73125 1.66406 5.25C1.66406 4.76875 2.05781 4.375 2.53906 4.375C3.02031 4.375 3.41406 4.76875 3.41406 5.25C3.41406 5.73125 3.02031 6.125 2.53906 6.125ZM13.2141 5.775H5.86406C5.47906 5.775 5.16406 5.46 5.16406 5.075C5.16406 4.69 5.47906 4.375 5.86406 4.375H13.2141C13.5991 4.375 13.9141 4.69 13.9141 5.075C13.9141 5.46 13.5991 5.775 13.2141 5.775ZM2.53906 2.625C2.05781 2.625 1.66406 2.23125 1.66406 1.75C1.66406 1.26875 2.05781 0.875 2.53906 0.875C3.02031 0.875 3.41406 1.26875 3.41406 1.75C3.41406 2.23125 3.02031 2.625 2.53906 2.625ZM13.2141 2.275H5.86406C5.47906 2.275 5.16406 1.96 5.16406 1.575C5.16406 1.19 5.47906 0.875 5.86406 0.875H13.2141C13.5991 0.875 13.9141 1.19 13.9141 1.575C13.9141 1.96 13.5991 2.275 13.2141 2.275Z" fill="#0040B0"/>
</svg>
