<svg width="18" height="18" viewBox="0 0 18 18" fill="none" xmlns="http://www.w3.org/2000/svg">
<path d="M6.53906 13.5C6.30469 13.5 6.10547 13.418 5.94141 13.2539L2.53125 9.98438C2.34375 9.79688 2.25 9.58594 2.25 9.35156C2.25 9.09375 2.33203 8.88281 2.49609 8.71875C2.68359 8.53125 2.90625 8.4375 3.16406 8.4375C3.35156 8.4375 3.55078 8.51953 3.76172 8.68359L6.53906 11.3555L14.2031 3.65625C14.3906 3.46875 14.6016 3.375 14.8359 3.375C15.0703 3.375 15.2812 3.46875 15.4688 3.65625C15.6562 3.84375 15.75 4.05469 15.75 4.28906C15.75 4.54688 15.668 4.75781 15.5039 4.92188L7.20703 13.2539C7.04297 13.418 6.82031 13.5 6.53906 13.5Z" fill="#36A41D"/>
</svg>
