<svg height="16" viewBox="0 0 16 16" width="16" xmlns="http://www.w3.org/2000/svg"><path d="m0 0h16v16h-16z" fill="#f15a24" opacity="0"/><path d="m12.2 16h-9.4c-1.54 0-2.8-1.26-2.8-2.8v-9.4c0-1.54 1.26-2.8 2.8-2.8h4.31c.44 0 .8.36.8.8s-.36.8-.8.8h-4.31c-.66 0-1.2.54-1.2 1.2v9.4c0 .66.54 1.2 1.2 1.2h9.4c.66 0 1.2-.54 1.2-1.2v-1.94c0-.44.36-.8.8-.8s.8.36.8.8v1.94c0 1.54-1.26 2.8-2.8 2.8zm-4.4-4c-.44 0-.8-.36-.8-.8v-2.38c-.02-1.29.48-2.5 1.39-3.41s2.12-1.41 3.4-1.41h1.18l-1.72-1.62c-.32-.3-.34-.81-.03-1.13.3-.32.81-.34 1.13-.03l3.4 3.2c.16.15.25.36.25.58s-.09.43-.25.58l-3.4 3.2c-.32.3-.83.29-1.13-.03s-.29-.83.03-1.13l2.14-2.02h-1.61c-.86 0-1.66.33-2.27.94-.6.61-.94 1.41-.93 2.27v2.38c.01.44-.34.8-.79.8z"/></svg>