<svg width="16" height="15" viewBox="0 0 16 15" fill="none" xmlns="http://www.w3.org/2000/svg">
<path d="M15.2 13.9998H14.3C13.86 13.9998 13.5 13.6398 13.5 13.1998V12.3998H2.5V13.1998C2.5 13.6398 2.14 13.9998 1.7 13.9998H0.799999C0.359999 13.9998 0 13.6398 0 13.1998V5.19977C0 5.10977 0.0199992 5.00977 0.0499992 4.92977L1.17 1.84977C1.57 0.749766 2.63 0.00976562 3.8 0.00976562H12.06C13.2 0.00976562 14.22 0.689766 14.65 1.74977L15.94 4.90977C15.99 5.02977 16.01 5.14977 16 5.26977V11.6198V13.2198C16 13.6598 15.64 14.0198 15.2 14.0198V13.9998ZM1.6 10.7998H14.4V5.99977H1.6V10.7998ZM1.94 4.39977H14.01L13.17 2.34977C12.98 1.89977 12.55 1.59977 12.06 1.59977H3.8C3.3 1.59977 2.84 1.91977 2.67 2.38977L1.94 4.39977ZM11.65 9.69977C10.92 9.69977 10.3 9.07977 10.3 8.34977C10.3 7.61977 10.92 6.99977 11.65 6.99977C12.38 6.99977 13 7.61977 13 8.34977C13 9.07977 12.38 9.69977 11.65 9.69977ZM4.35 9.69977C3.62 9.69977 3 9.07977 3 8.34977C3 7.61977 3.62 6.99977 4.35 6.99977C5.08 6.99977 5.7 7.61977 5.7 8.34977C5.7 9.07977 5.08 9.69977 4.35 9.69977Z" fill="#223548"/>
</svg>
