<svg width="16" height="18" viewBox="0 0 16 18" fill="none" xmlns="http://www.w3.org/2000/svg">
  <path d="M11.5684 8.50781C12.8809 9 13.9355 9.83203 14.7324 11.0039C15.5527 12.1523 15.9629 13.4766 15.9629 14.9766V16.9805C15.9629 17.2852 15.8691 17.5312 15.6816 17.7188C15.5176 17.9062 15.2832 18 14.9785 18H0.986328C0.681641 18 0.435547 17.9062 0.248047 17.7188C0.0839844 17.5312 0.00195312 17.2852 0.00195312 16.9805V14.9766C0.00195312 13.4766 0.400391 12.1523 1.19727 11.0039C2.01758 9.83203 3.08398 9 4.39648 8.50781C3.45898 7.57031 2.99023 6.41016 2.99023 5.02734C2.99023 4.32422 3.11914 3.66797 3.37695 3.05859C3.63477 2.44922 3.98633 1.92188 4.43164 1.47656C4.90039 1.03125 5.42773 0.679688 6.01367 0.421875C6.62305 0.164062 7.2793 0.0351562 7.98242 0.0351562C8.68555 0.0351562 9.3418 0.164062 9.95117 0.421875C10.5605 0.679688 11.0879 1.03125 11.5332 1.47656C11.9785 1.92188 12.3301 2.44922 12.5879 3.05859C12.8457 3.66797 12.9746 4.32422 12.9746 5.02734C12.9746 6.41016 12.5059 7.57031 11.5684 8.50781ZM7.98242 2.00391C7.13867 2.00391 6.42383 2.29688 5.83789 2.88281C5.27539 3.44531 4.99414 4.16016 4.99414 5.02734C4.99414 5.87109 5.27539 6.58594 5.83789 7.17188C6.42383 7.73438 7.13867 8.01562 7.98242 8.01562C8.82617 8.01562 9.5293 7.73438 10.0918 7.17188C10.6777 6.58594 10.9707 5.87109 10.9707 5.02734C10.9707 4.16016 10.6777 3.44531 10.0918 2.88281C9.5293 2.29688 8.82617 2.00391 7.98242 2.00391ZM13.959 14.9766C13.959 14.2734 13.8301 13.6289 13.5723 13.043C13.3145 12.4336 12.9629 11.9062 12.5176 11.4609C12.0723 10.9922 11.5449 10.6289 10.9355 10.3711C10.3496 10.1133 9.70508 9.98438 9.00195 9.98438H6.99805C6.29492 9.98438 5.63867 10.1133 5.0293 10.3711C4.41992 10.6289 3.89258 10.9922 3.44727 11.4609C3.00195 11.9062 2.65039 12.4336 2.39258 13.043C2.13477 13.6289 2.00586 14.2734 2.00586 14.9766V15.9961H13.959V14.9766Z" fill="#354A5F"/>
</svg>
