<svg width="18" height="19" viewBox="0 0 18 19" fill="none" xmlns="http://www.w3.org/2000/svg">
<path d="M17.1562 15.2227C17.3906 15.5273 17.5078 15.7969 17.5078 16.0312C17.5078 16.1484 17.4961 16.2305 17.4727 16.2773C17.3086 16.6289 17.0039 16.8047 16.5586 16.8047H11.7773C11.5898 17.3672 11.25 17.8359 10.7578 18.2109C10.2891 18.5859 9.72656 18.7734 9.07031 18.7734C8.41406 18.7734 7.83984 18.5859 7.34766 18.2109C6.87891 17.8359 6.55078 17.3672 6.36328 16.8047H1.58203C1.20703 16.8047 0.925781 16.6406 0.738281 16.3125C0.667969 16.125 0.632812 15.9727 0.632812 15.8555C0.632812 15.6211 0.703125 15.4336 0.84375 15.293C0.914062 15.2227 1.01953 15.082 1.16016 14.8711C1.32422 14.6602 1.42969 14.5195 1.47656 14.4492C1.80469 13.9805 2.05078 13.4883 2.21484 12.9727C2.40234 12.457 2.49609 11.8945 2.49609 11.2852V9.42188C2.49609 8.67187 2.57813 7.86328 2.74219 6.99609C2.90625 6.12891 3.22266 5.33203 3.69141 4.60547C4.18359 3.83203 4.86328 3.19922 5.73047 2.70703C6.62109 2.19141 7.73438 1.93359 9.07031 1.93359C10.4062 1.93359 11.5078 2.17969 12.375 2.67188C13.2422 3.16406 13.9219 3.78516 14.4141 4.53516C14.9062 5.28516 15.2344 6.10547 15.3984 6.99609C15.5625 7.86328 15.6445 8.67187 15.6445 9.42188V11.2852C15.6445 11.8945 15.7148 12.457 15.8555 12.9727C16.0195 13.4648 16.2305 13.875 16.4883 14.2031C16.582 14.3906 16.6875 14.5781 16.8047 14.7656C16.9219 14.9531 17.0391 15.1055 17.1562 15.2227ZM14.6953 15.0469C14.4609 14.5781 14.2266 14.0391 13.9922 13.4297C13.7812 12.7969 13.6758 12.082 13.6758 11.2852V9.42188C13.6758 8.76563 13.6055 8.09766 13.4648 7.41797C13.3477 6.71484 13.1016 6.10547 12.7266 5.58984C12.3984 5.05078 11.9531 4.61719 11.3906 4.28906C10.8281 3.96094 10.043 3.79688 9.03516 3.79688C8.00391 3.79688 7.19531 3.96094 6.60938 4.28906C6.02344 4.61719 5.58984 5.05078 5.30859 5.58984C4.98047 6.10547 4.74609 6.71484 4.60547 7.41797C4.46484 8.09766 4.39453 8.76563 4.39453 9.42188V11.2852C4.39453 12.082 4.28906 12.7969 4.07812 13.4297C3.86719 14.0391 3.62109 14.5781 3.33984 15.0469H14.6953Z" fill="#1D2D3E"/>
</svg>
