<svg width="24" height="22" viewBox="0 0 24 22" fill="none" xmlns="http://www.w3.org/2000/svg">
    <path d="M19.875 0.467773C20.8125 0.467773 21.6094 0.795898 22.2656 1.45215C22.9219 2.1084 23.25 2.88965 23.25 3.7959V6.0459C23.25 6.38965 23.1406 6.6709 22.9219 6.88965C22.7031 7.07715 22.4375 7.1709 22.125 7.1709C21.8125 7.1709 21.5469 7.07715 21.3281 6.88965C21.1094 6.6709 21 6.38965 21 6.0459V3.7959C21 3.4834 20.8906 3.2334 20.6719 3.0459C20.4531 2.82715 20.1875 2.71777 19.875 2.71777H4.17188C3.85938 2.71777 3.59375 2.82715 3.375 3.0459C3.15625 3.2334 3.04688 3.4834 3.04688 3.7959V4.9209H8.67188C8.98438 4.9209 9.25 5.03027 9.46875 5.24902C9.6875 5.46777 9.79688 5.7334 9.79688 6.0459C9.79688 6.38965 9.6875 6.6709 9.46875 6.88965C9.25 7.07715 8.98438 7.1709 8.67188 7.1709H3.04688V17.2959C3.04688 17.6084 3.15625 17.874 3.375 18.0928C3.59375 18.3115 3.85938 18.4209 4.17188 18.4209H6.98438C7.29688 18.4209 7.5625 18.5303 7.78125 18.749C8 18.9365 8.10938 19.2021 8.10938 19.5459C8.10938 19.8584 8 20.124 7.78125 20.3428C7.5625 20.5303 7.29688 20.624 6.98438 20.624H4.17188C3.26562 20.624 2.46875 20.2959 1.78125 19.6396C1.125 18.9834 0.796875 18.2021 0.796875 17.2959V3.7959C0.796875 2.88965 1.125 2.1084 1.78125 1.45215C2.46875 0.795898 3.26562 0.467773 4.17188 0.467773H19.875ZM15.4688 6.0459C16.5625 6.0459 17.5781 6.26465 18.5156 6.70215C19.4531 7.1084 20.2656 7.6709 20.9531 8.38965C21.6719 9.1084 22.2344 9.93652 22.6406 10.874C23.0469 11.8115 23.25 12.8271 23.25 13.9209C23.25 14.9834 23.0469 15.999 22.6406 16.9678C22.2344 17.9053 21.6719 18.7334 20.9531 19.4521C20.2344 20.1709 19.3906 20.7334 18.4219 21.1396C17.4844 21.5459 16.4688 21.749 15.375 21.749C14.3125 21.749 13.2969 21.5459 12.3281 21.1396C11.3906 20.7334 10.5625 20.1709 9.84375 19.4521C9.125 18.7334 8.5625 17.9053 8.15625 16.9678C7.75 15.999 7.54688 14.9834 7.54688 13.9209C7.54688 12.8271 7.75 11.8115 8.15625 10.874C8.5625 9.90527 9.10938 9.07715 9.79688 8.38965C10.5156 7.6709 11.3438 7.1084 12.2812 6.70215C13.25 6.26465 14.2656 6.0459 15.3281 6.0459H15.4688ZM19.875 10.5459C19.2812 9.7959 18.5938 9.24902 17.8125 8.90527C17.9688 9.15527 18.0938 9.4209 18.1875 9.70215C18.3125 9.95215 18.4375 10.2334 18.5625 10.5459H19.875ZM15.375 9.13965C15.1562 9.51465 14.9219 9.9834 14.6719 10.5459H16.125C15.875 9.9209 15.625 9.45215 15.375 9.13965ZM9.79688 13.9209C9.79688 14.1084 9.79688 14.2959 9.79688 14.4834C9.82812 14.6709 9.85938 14.8584 9.89062 15.0459H11.7188C11.6875 14.8584 11.6719 14.6709 11.6719 14.4834C11.6719 14.2959 11.6719 14.1084 11.6719 13.9209C11.6719 13.7334 11.6719 13.5459 11.6719 13.3584C11.6719 13.1709 11.6875 12.9834 11.7188 12.7959H9.89062C9.85938 12.9834 9.82812 13.1709 9.79688 13.3584C9.79688 13.5459 9.79688 13.7334 9.79688 13.9209ZM10.9219 17.2959C11.5156 18.0459 12.2031 18.5928 12.9844 18.9365C12.8281 18.6865 12.6875 18.4365 12.5625 18.1865C12.4688 17.9053 12.3594 17.6084 12.2344 17.2959H10.9219ZM12.2344 10.5459C12.3594 10.2334 12.4688 9.95215 12.5625 9.70215C12.6875 9.4209 12.8281 9.15527 12.9844 8.90527C12.2031 9.24902 11.5156 9.7959 10.9219 10.5459H12.2344ZM15.375 18.7021C15.5312 18.4834 15.6562 18.2646 15.75 18.0459C15.875 17.7959 16 17.5459 16.125 17.2959H14.6719L15.375 18.7021ZM16.7812 15.0459C16.8438 14.8584 16.875 14.6709 16.875 14.4834C16.875 14.2959 16.875 14.1084 16.875 13.9209C16.875 13.7334 16.875 13.5459 16.875 13.3584C16.875 13.1709 16.8438 12.9834 16.7812 12.7959H14.0156C13.9531 12.9834 13.9219 13.1709 13.9219 13.3584C13.9219 13.5459 13.9219 13.7334 13.9219 13.9209C13.9219 14.1084 13.9219 14.2959 13.9219 14.4834C13.9219 14.6709 13.9531 14.8584 14.0156 15.0459H16.7812ZM17.8125 18.9365C18.5938 18.5928 19.2812 18.0459 19.875 17.2959H18.5625C18.4375 17.6084 18.3125 17.9053 18.1875 18.1865C18.0938 18.4365 17.9688 18.6865 17.8125 18.9365ZM20.9062 15.0459C20.9375 14.8584 20.9531 14.6709 20.9531 14.4834C20.9844 14.2959 21 14.1084 21 13.9209C21 13.7334 20.9844 13.5459 20.9531 13.3584C20.9531 13.1709 20.9375 12.9834 20.9062 12.7959H19.0781C19.1094 12.9834 19.125 13.1709 19.125 13.3584C19.125 13.5459 19.125 13.7334 19.125 13.9209C19.125 14.1084 19.125 14.2959 19.125 14.4834C19.125 14.6709 19.1094 14.8584 19.0781 15.0459H20.9062Z" fill="#1D2D3E"/>
</svg>
