<svg width="16" height="16" viewBox="0 0 16 16" fill="none" xmlns="http://www.w3.org/2000/svg">
  <path d="M2.6875 15.125C2.6875 15.3542 2.59375 15.5521 2.40625 15.7188C2.23958 15.9062 2.04167 16 1.8125 16H0.90625C0.677083 16 0.46875 15.9062 0.28125 15.7188C0.114583 15.5521 0.03125 15.3542 0.03125 15.125V7.15625C0.03125 7.05208 0.0520833 6.9375 0.09375 6.8125L1.40625 3.5C1.61458 3 1.9375 2.60417 2.375 2.3125C2.83333 2 3.33333 1.84375 3.875 1.84375H12.125C12.6667 1.84375 13.1562 2 13.5938 2.3125C14.0521 2.60417 14.3854 3 14.5938 3.5L15.9062 6.8125C15.9479 6.9375 15.9688 7.05208 15.9688 7.15625V15.125C15.9688 15.3542 15.875 15.5521 15.6875 15.7188C15.5208 15.9062 15.3229 16 15.0938 16H14.1875C13.9583 16 13.75 15.9062 13.5625 15.7188C13.3958 15.5521 13.3125 15.3542 13.3125 15.125V14.2188H2.6875V15.125ZM13.7812 6.25L12.9375 4.15625C12.7917 3.78125 12.5208 3.59375 12.125 3.59375H3.875C3.47917 3.59375 3.20833 3.78125 3.0625 4.15625L2.21875 6.25H13.7812ZM1.8125 8.03125V12.4688H14.1875V8.03125H1.8125ZM4.03125 8.90625C4.38542 8.90625 4.6875 9.04167 4.9375 9.3125C5.20833 9.5625 5.34375 9.875 5.34375 10.25C5.34375 10.6042 5.20833 10.9167 4.9375 11.1875C4.6875 11.4375 4.38542 11.5625 4.03125 11.5625C3.65625 11.5625 3.33333 11.4375 3.0625 11.1875C2.8125 10.9167 2.6875 10.6042 2.6875 10.25C2.6875 9.875 2.8125 9.5625 3.0625 9.3125C3.33333 9.04167 3.65625 8.90625 4.03125 8.90625ZM13.3125 10.25C13.3125 10.6042 13.1771 10.9167 12.9062 11.1875C12.6562 11.4375 12.3542 11.5625 12 11.5625C11.625 11.5625 11.3021 11.4375 11.0312 11.1875C10.7812 10.9167 10.6562 10.6042 10.6562 10.25C10.6562 9.875 10.7812 9.5625 11.0312 9.3125C11.3021 9.04167 11.625 8.90625 12 8.90625C12.3542 8.90625 12.6562 9.04167 12.9062 9.3125C13.1771 9.5625 13.3125 9.875 13.3125 10.25Z" fill="#223548"/>
</svg>  
 
