<svg class="icon icon-chain-link" width="16" height="16" viewBox="0 0 16 16" fill="none" xmlns="http://www.w3.org/2000/svg">
      <path d="M7.28125 12.2812C7.44792 12.1146 7.65625 12.0312 7.90625 12.0312C8.15625 12.0312 8.34375 12.1458 8.46875 12.375C8.63542 12.5417 8.71875 12.7396 8.71875 12.9688C8.71875 13.1979 8.63542 13.3958 8.46875 13.5625L7.28125 14.7188C6.86458 15.1354 6.38542 15.4479 5.84375 15.6562C5.32292 15.8854 4.79167 16 4.25 16C3.70833 16 3.17708 15.8854 2.65625 15.6562C2.15625 15.4479 1.69792 15.1354 1.28125 14.7188C0.864583 14.3021 0.552083 13.8333 0.34375 13.3125C0.135417 12.7917 0.03125 12.2604 0.03125 11.7188C0.03125 11.1771 0.135417 10.6458 0.34375 10.125C0.552083 9.60417 0.864583 9.13542 1.28125 8.71875L3.65625 6.375C4.07292 5.95833 4.54167 5.64583 5.0625 5.4375C5.60417 5.20833 6.14583 5.09375 6.6875 5.09375C7.22917 5.09375 7.76042 5.20833 8.28125 5.4375C8.80208 5.64583 9.26042 5.95833 9.65625 6.375C9.82292 6.54167 9.90625 6.73958 9.90625 6.96875C9.90625 7.19792 9.82292 7.39583 9.65625 7.5625C9.48958 7.72917 9.29167 7.8125 9.0625 7.8125C8.83333 7.8125 8.63542 7.72917 8.46875 7.5625C7.98958 7.04167 7.40625 6.78125 6.71875 6.78125C6.03125 6.78125 5.4375 7.04167 4.9375 7.5625L2.5625 9.90625C2.04167 10.3854 1.78125 10.9688 1.78125 11.6562C1.78125 12.3438 2.04167 12.9479 2.5625 13.4688C3.04167 13.9688 3.625 14.2188 4.3125 14.2188C5 14.2188 5.59375 13.9688 6.09375 13.4688L7.28125 12.2812ZM14.7188 1.28125C15.1354 1.67708 15.4479 2.13542 15.6562 2.65625C15.8854 3.17708 16 3.70833 16 4.25C16 4.79167 15.8854 5.32292 15.6562 5.84375C15.4479 6.34375 15.1354 6.80208 14.7188 7.21875L12.375 9.5625C11.9375 10 11.4583 10.3229 10.9375 10.5312C10.4167 10.7396 9.875 10.8438 9.3125 10.8438C8.77083 10.8438 8.23958 10.7396 7.71875 10.5312C7.21875 10.3229 6.77083 10 6.375 9.5625C6.20833 9.39583 6.125 9.20833 6.125 9C6.125 8.77083 6.20833 8.57292 6.375 8.40625C6.54167 8.23958 6.72917 8.15625 6.9375 8.15625C7.16667 8.15625 7.36458 8.23958 7.53125 8.40625C7.76042 8.65625 8.03125 8.84375 8.34375 8.96875C8.65625 9.09375 8.96875 9.15625 9.28125 9.15625C9.61458 9.15625 9.9375 9.09375 10.25 8.96875C10.5625 8.84375 10.8438 8.65625 11.0938 8.40625L13.4688 6.03125C13.9688 5.55208 14.2188 4.96875 14.2188 4.28125C14.2188 3.59375 13.9688 2.98958 13.4688 2.46875C12.9896 1.96875 12.4062 1.71875 11.7188 1.71875C11.0312 1.71875 10.4271 1.96875 9.90625 2.46875L8.71875 3.65625C8.55208 3.82292 8.35417 3.90625 8.125 3.90625C7.89583 3.90625 7.69792 3.82292 7.53125 3.65625C7.36458 3.48958 7.28125 3.29167 7.28125 3.0625C7.28125 2.83333 7.36458 2.63542 7.53125 2.46875L8.71875 1.28125C9.13542 0.864583 9.60417 0.552083 10.125 0.34375C10.6667 0.114583 11.2083 0 11.75 0C12.2917 0 12.8229 0.114583 13.3438 0.34375C13.8646 0.552083 14.3229 0.864583 14.7188 1.28125Z" fill="#1D2D3E"/>
    </svg>
