<svg width="16" height="16" viewBox="0 0 16 16" fill="none" xmlns="http://www.w3.org/2000/svg">
<path d="M8 0.03125C9.10417 0.03125 10.1354 0.239583 11.0938 0.65625C12.0729 1.07292 12.9271 1.64583 13.6562 2.375C14.3854 3.10417 14.9583 3.94792 15.375 4.90625C15.7917 5.86458 16 6.89583 16 8C16 9.10417 15.7917 10.1458 15.375 11.125C14.9583 12.0833 14.3854 12.9271 13.6562 13.6562C12.9271 14.3854 12.0729 14.9583 11.0938 15.375C10.1354 15.7917 9.10417 16 8 16C6.91667 16 5.88542 15.7917 4.90625 15.375C3.94792 14.9583 3.10417 14.3854 2.375 13.6562C1.64583 12.9271 1.07292 12.0833 0.65625 11.125C0.239583 10.1458 0.03125 9.10417 0.03125 8C0.03125 6.89583 0.239583 5.86458 0.65625 4.90625C1.07292 3.94792 1.64583 3.10417 2.375 2.375C3.10417 1.64583 3.94792 1.07292 4.90625 0.65625C5.88542 0.239583 6.91667 0.03125 8 0.03125Z" fill="#1D2D3E"/>
</svg>
