<svg width="16" height="16" viewBox="0 0 16 16" fill="none" xmlns="http://www.w3.org/2000/svg">
<path d="M9.125 8L12.7812 11.6562C12.9271 11.8021 13 11.9896 13 12.2188C13 12.4479 12.9167 12.6354 12.75 12.7812C12.6042 12.9271 12.4167 13 12.1875 13C11.9583 13 11.7708 12.9271 11.625 12.7812L8 9.15625L4.375 12.7812C4.22917 12.9271 4.04167 13 3.8125 13C3.58333 13 3.38542 12.9271 3.21875 12.7812C3.07292 12.6354 3 12.4479 3 12.2188C3 11.9896 3.07292 11.8021 3.21875 11.6562L6.875 8L3.21875 4.375C3.07292 4.22917 3 4.04167 3 3.8125C3 3.58333 3.07292 3.39583 3.21875 3.25C3.38542 3.08333 3.58333 3 3.8125 3C4.02083 3 4.20833 3.08333 4.375 3.25L8 6.875L11.625 3.25C11.7917 3.08333 11.9792 3 12.1875 3C12.4167 3 12.6042 3.08333 12.75 3.25C12.9167 3.39583 13 3.58333 13 3.8125C13 4.04167 12.9271 4.22917 12.7812 4.375L9.125 8Z" fill="#EE3939"/>
</svg>
