<svg width="100" height="100" viewBox="0 0 100 100" fill="none" xmlns="http://www.w3.org/2000/svg">
<path d="M81.9173 84.0885H19.6673C14.8757 84.0885 10.959 80.1719 10.959 75.3802C10.959 73.7969 12.0423 71.2135 12.084 71.1302L12.1257 71.0886L43.2923 17.0052C44.834 14.3385 47.7507 12.6719 50.834 12.6719C53.9173 12.6719 56.7923 14.3385 58.3757 17.0052L89.5007 71.0886C90.2507 72.4219 90.6673 73.9219 90.6673 75.4219C90.6257 80.2135 86.709 84.0885 81.9173 84.0885ZM13.0423 71.5469C12.9173 71.8385 12.0007 74.0885 12.0007 75.3802C12.0007 79.5885 15.459 83.0469 19.6673 83.0469H81.9173C86.1257 83.0469 89.584 79.5885 89.584 75.3802C89.584 74.0469 89.2507 72.7135 88.584 71.5885L57.4173 17.5052C56.0423 15.1302 53.5007 13.6719 50.7923 13.6719C48.084 13.6719 45.5423 15.1302 44.1673 17.5052L13.0423 71.5469Z" fill="#1A2733"/>
<path d="M50.7917 72.1302C53.5071 72.1302 55.7083 69.9289 55.7083 67.2135C55.7083 64.4981 53.5071 62.2969 50.7917 62.2969C48.0763 62.2969 45.875 64.4981 45.875 67.2135C45.875 69.9289 48.0763 72.1302 50.7917 72.1302Z" fill="#0070F2"/>
<path d="M50.7917 72.6302C47.7917 72.6302 45.375 70.1719 45.375 67.2135C45.375 64.2552 47.8333 61.7969 50.7917 61.7969C53.7917 61.7969 56.2083 64.2552 56.2083 67.2135C56.2083 70.1719 53.7917 72.6302 50.7917 72.6302ZM50.7917 62.7969C48.375 62.7969 46.4167 64.7552 46.4167 67.1719C46.4167 69.5885 48.375 71.5469 50.7917 71.5469C53.2083 71.5469 55.1667 69.5885 55.1667 67.1719C55.1667 64.7552 53.2083 62.7969 50.7917 62.7969Z" fill="#1A2733"/>
<path fill-rule="evenodd" clip-rule="evenodd" d="M50.7917 32.7969C48.0833 32.7969 45.875 35.0052 45.875 37.7135V52.4635C45.875 55.1719 48.0833 57.3802 50.7917 57.3802C53.5 57.3802 55.7083 55.1719 55.7083 52.4635V37.7135C55.7083 35.0052 53.5 32.7969 50.7917 32.7969Z" fill="#89D1FF"/>
<path d="M50.7917 57.8802C47.7917 57.8802 45.375 55.4219 45.375 52.4635V37.7135C45.375 34.7135 47.8333 32.2969 50.7917 32.2969C53.7917 32.2969 56.2083 34.7552 56.2083 37.7135V52.4635C56.2083 55.4635 53.7917 57.8802 50.7917 57.8802ZM50.7917 33.3385C48.375 33.3385 46.4167 35.2969 46.4167 37.7135V52.4635C46.4167 54.8802 48.375 56.8385 50.7917 56.8385C53.2083 56.8385 55.1667 54.8802 55.1667 52.4635V37.7135C55.1667 35.2969 53.2083 33.3385 50.7917 33.3385Z" fill="#1A2733"/>
<path d="M79.084 77.5417H22.5007C20.4173 77.5417 18.709 75.8333 18.709 73.75C18.709 73.0833 18.8756 72.4167 19.209 71.875C19.2923 71.75 47.2923 23.0833 47.584 22.625C48.2923 21.5 49.5007 20.875 50.7923 20.875C52.084 20.875 53.2923 21.5417 54.0007 22.625L82.3756 71.9167C82.709 72.5 82.8757 73.1667 82.8757 73.7917C82.8757 75.8333 81.1673 77.5417 79.084 77.5417ZM20.1257 72.375C19.8757 72.7917 19.7507 73.2917 19.7507 73.75C19.7507 75.25 21.0007 76.5 22.5007 76.5H79.0423C80.5423 76.5 81.7923 75.25 81.7923 73.75C81.7923 73.25 81.6673 72.7917 81.4173 72.375L53.084 23.125C52.584 22.375 51.709 21.875 50.7923 21.875C49.834 21.875 49.0007 22.3333 48.459 23.125L20.459 71.8333C20.2923 72.0833 20.209 72.25 20.1257 72.375Z" fill="#1A2733"/>
</svg>
