<svg width="16" height="16" viewBox="0 0 16 16" fill="none" xmlns="http://www.w3.org/2000/svg">
<path d="M15.8437 1.5625C15.9479 1.75 15.9896 1.9375 15.9687 2.125C15.9479 2.29167 15.9062 2.42708 15.8437 2.53125L11.0625 9.21875V12.9062C11.0625 13.1146 11 13.2917 10.875 13.4375C10.7708 13.5833 10.6354 13.7083 10.4687 13.8125L6.49999 15.8125C6.14582 16.0208 5.81249 16.0208 5.49999 15.8125C5.16666 15.5833 4.99999 15.2812 4.99999 14.9062V9.21875L0.21874 2.53125C0.114573 2.38542 0.0416565 2.22917 -1.01724e-05 2.0625C-0.0208435 1.875 0.0208232 1.70833 0.12499 1.5625C0.333323 1.22917 0.62499 1.0625 0.99999 1.0625H14.9687C15.3437 1.0625 15.6354 1.22917 15.8437 1.5625ZM12.9687 3.03125H2.90624L6.78124 8.4375C6.82291 8.54167 6.86457 8.64583 6.90624 8.75C6.96874 8.83333 6.99999 8.92708 6.99999 9.03125V13.4062L8.96874 12.4062V9.03125C8.96874 8.92708 8.98957 8.83333 9.03124 8.75C9.09374 8.64583 9.14582 8.54167 9.18749 8.4375L12.9687 3.03125Z" fill="#0040B0"/>
</svg>
