<svg width="18" height="19" viewBox="0 0 18 19" fill="none" xmlns="http://www.w3.org/2000/svg">
<path d="M9 0.808594C10.2422 0.808594 11.4023 1.04297 12.4805 1.51172C13.582 1.98047 14.543 2.625 15.3633 3.44531C16.1836 4.26563 16.8281 5.22656 17.2969 6.32812C17.7656 7.40625 18 8.56641 18 9.80859C18 11.0508 17.7656 12.2227 17.2969 13.3242C16.8281 14.4023 16.1836 15.3516 15.3633 16.1719C14.543 16.9687 13.582 17.6016 12.4805 18.0703C11.4023 18.5391 10.2422 18.7734 9 18.7734C7.78125 18.7734 6.62109 18.5391 5.51953 18.0703C4.44141 17.6016 3.49219 16.9687 2.67188 16.1719C1.85156 15.3516 1.20703 14.4023 0.738281 13.3242C0.269531 12.2227 0.0351562 11.0508 0.0351562 9.80859C0.0351562 8.56641 0.269531 7.40625 0.738281 6.32812C1.20703 5.22656 1.85156 4.26563 2.67188 3.44531C3.49219 2.625 4.44141 1.98047 5.51953 1.51172C6.62109 1.04297 7.78125 0.808594 9 0.808594ZM9 16.9805C9.98438 16.9805 10.9102 16.793 11.7773 16.418C12.668 16.043 13.4414 15.5273 14.0977 14.8711C14.7539 14.2148 15.2695 13.4531 15.6445 12.5859C16.0195 11.7188 16.207 10.793 16.207 9.80859C16.207 8.82422 16.0195 7.89844 15.6445 7.03125C15.2695 6.16406 14.7539 5.40234 14.0977 4.74609C13.4414 4.08984 12.668 3.57422 11.7773 3.19922C10.9102 2.82422 9.98438 2.63672 9 2.63672C8.01562 2.63672 7.08984 2.82422 6.22266 3.19922C5.35547 3.57422 4.59375 4.08984 3.9375 4.74609C3.28125 5.40234 2.76563 6.16406 2.39062 7.03125C2.01562 7.89844 1.82812 8.82422 1.82812 9.80859C1.82812 10.793 2.01562 11.7188 2.39062 12.5859C2.76563 13.4531 3.28125 14.2148 3.9375 14.8711C4.59375 15.5273 5.35547 16.043 6.22266 16.418C7.08984 16.793 8.01562 16.9805 9 16.9805ZM9 4.85156C9.39844 4.85156 9.72656 4.99219 9.98438 5.27344C10.2422 5.53125 10.3711 5.84766 10.3711 6.22266C10.3711 6.59766 10.2422 6.91406 9.98438 7.17188C9.72656 7.42969 9.39844 7.55859 9 7.55859C8.625 7.55859 8.30859 7.42969 8.05078 7.17188C7.79297 6.91406 7.66406 6.59766 7.66406 6.22266C7.66406 5.84766 7.79297 5.53125 8.05078 5.27344C8.30859 4.99219 8.625 4.85156 9 4.85156ZM9 9.35156C9.60938 9.35156 9.91406 9.65625 9.91406 10.2656V13.8516C9.91406 14.1094 9.83203 14.332 9.66797 14.5195C9.50391 14.6836 9.28125 14.7656 9 14.7656C8.74219 14.7656 8.53125 14.6836 8.36719 14.5195C8.20313 14.332 8.12109 14.1094 8.12109 13.8516V10.2656C8.12109 9.65625 8.41406 9.35156 9 9.35156Z" fill="#1D2D3E"/>
</svg>
