<svg width="64" height="64" viewBox="0 0 64 64" fill="none" xmlns="http://www.w3.org/2000/svg">
<g clip-path="url(#clip0_2076_95672)">
<path d="M0 8C0 3.58172 3.58172 0 8 0H56C60.4183 0 64 3.58172 64 8V56C64 60.4183 60.4183 64 56 64H8C3.58172 64 0 60.4183 0 56V8Z" fill="#D1EFFF"/>
<path d="M32 49.5C31 49.5 30.025 49.1003 29.3 48.3758L15.65 35.56C13.275 33.1867 12 30.1138 12 26.8162C12 23.5186 13.3 20.4458 15.625 18.0974C17.95 15.7741 21 14.5 24.325 14.5C27.225 14.5 29.875 15.5493 32 17.4729C34.125 15.5493 36.775 14.5 39.675 14.5C46.475 14.5 52 20.0211 52 26.8162C52 30.0889 50.725 33.1867 48.4 35.51L34.65 48.4258C33.975 49.1003 32.875 49.5 31.975 49.5H32ZM24.3 18.5221C22.1 18.5221 20.025 19.3715 18.45 20.9454C16.85 22.5193 16 24.6178 16 26.8412C16 29.0646 16.85 31.1381 18.425 32.712L32.1 45.5278L45.625 32.662C47.15 31.1381 48 29.0646 48 26.8412C48 22.2694 44.275 18.5221 39.675 18.5221C36.625 18.5221 34.675 20.2209 33.6 21.6699L32 23.7684L30.4 21.6699C29.325 20.2459 27.375 18.5221 24.325 18.5221H24.3Z" fill="#0057D2"/>
</g>
<defs>
<clipPath id="clip0_2076_95672">
<rect width="64" height="64" fill="white"/>
</clipPath>
</defs>
</svg>
