<svg width="64" height="65" viewBox="0 0 64 65" fill="none" xmlns="http://www.w3.org/2000/svg">
<g clip-path="url(#clip0_1408_32866)">
<path d="M0 8.29688C0 3.8786 3.58172 0.296875 8 0.296875H56C60.4183 0.296875 64 3.8786 64 8.29688V56.2969C64 60.7152 60.4183 64.2969 56 64.2969H8C3.58172 64.2969 0 60.7152 0 56.2969V8.29688Z" fill="#D1EFFF"/>
<path d="M32 12.2969C34.7604 12.2969 37.3385 12.8177 39.7344 13.8594C42.1302 14.901 44.2396 16.3333 46.0625 18.1562C47.8854 19.9792 49.3177 22.0885 50.3594 24.4844C51.401 26.8802 51.9219 29.4583 51.9219 32.2188C51.9219 34.9792 51.401 37.5833 50.3594 40.0312C49.3177 42.4271 47.8854 44.5365 46.0625 46.3594C44.2396 48.1823 42.1302 49.6146 39.7344 50.6562C37.3385 51.6979 34.7604 52.2188 32 52.2188C29.2396 52.2188 26.6354 51.6979 24.1875 50.6562C21.7917 49.6146 19.6823 48.1823 17.8594 46.3594C16.0365 44.5365 14.6042 42.4271 13.5625 40.0312C12.5208 37.5833 12 34.9792 12 32.2188C12 29.4583 12.5208 26.8802 13.5625 24.4844C14.6042 22.0885 16.0365 19.9792 17.8594 18.1562C19.6823 16.3333 21.7917 14.901 24.1875 13.8594C26.6354 12.8177 29.2396 12.2969 32 12.2969ZM32 48.1562C34.1875 48.1562 36.2448 47.7396 38.1719 46.9062C40.099 46.0729 41.7917 44.9271 43.25 43.4688C44.7083 42.0104 45.8542 40.3177 46.6875 38.3906C47.5208 36.4635 47.9375 34.4062 47.9375 32.2188C47.9375 30.0312 47.5208 27.974 46.6875 26.0469C45.8542 24.1198 44.7083 22.4271 43.25 20.9688C41.7917 19.5104 40.099 18.3646 38.1719 17.5312C36.2448 16.6979 34.1875 16.2812 32 16.2812C29.8125 16.2812 27.7292 16.6979 25.75 17.5312C23.8229 18.3646 22.1302 19.5104 20.6719 20.9688C19.2135 22.4271 18.0677 24.1198 17.2344 26.0469C16.401 27.974 15.9844 30.0312 15.9844 32.2188C15.9844 34.4062 16.401 36.4635 17.2344 38.3906C18.0677 40.3177 19.2135 42.0104 20.6719 43.4688C22.1302 44.9271 23.8229 46.0729 25.75 46.9062C27.7292 47.7396 29.8125 48.1562 32 48.1562ZM32 22.2188C33.3542 22.2188 34.6302 22.4792 35.8281 23C37.0781 23.5208 38.1458 24.25 39.0312 25.1875C39.9688 26.0729 40.6979 27.1146 41.2188 28.3125C41.7396 29.5104 42 30.8125 42 32.2188C42 33.625 41.7396 34.9271 41.2188 36.125C40.6979 37.3229 39.9688 38.3906 39.0312 39.3281C38.1458 40.2135 37.0781 40.9167 35.8281 41.4375C34.6302 41.9583 33.3542 42.2188 32 42.2188C30.5938 42.2188 29.2917 41.9583 28.0938 41.4375C26.8958 40.9167 25.8281 40.2135 24.8906 39.3281C24.0052 38.3906 23.3021 37.3229 22.7812 36.125C22.2604 34.9271 22 33.625 22 32.2188C22 30.8125 22.2604 29.5104 22.7812 28.3125C23.3021 27.1146 24.0052 26.0729 24.8906 25.1875C25.8281 24.25 26.8958 23.5208 28.0938 23C29.2917 22.4792 30.5938 22.2188 32 22.2188Z" fill="#0040B0"/>
</g>
<defs>
<clipPath id="clip0_1408_32866">
<rect width="64" height="64" fill="white" transform="translate(0 0.296875)"/>
</clipPath>
</defs>
</svg>
