<svg width="64" height="64" viewBox="0 0 64 64" fill="none" xmlns="http://www.w3.org/2000/svg">
<g clip-path="url(#clip0_2076_95688)">
<path d="M0 8C0 3.58172 3.58172 0 8 0H56C60.4183 0 64 3.58172 64 8V56C64 60.4183 60.4183 64 56 64H8C3.58172 64 0 60.4183 0 56V8Z" fill="#E2D8FF"/>
<path d="M44.4795 23.0938C45.5212 23.0938 46.4847 23.3281 47.3701 23.7969C48.2555 24.2135 49.0107 24.7865 49.6357 25.5156C50.2607 26.1927 50.7034 27 50.9639 27.9375C51.2243 28.875 51.2764 29.8385 51.1201 30.8281L48.2295 46.375C47.917 47.9375 47.1357 49.2396 45.8857 50.2812C44.6878 51.375 43.2555 51.9219 41.5889 51.9219H18.7764C16.9014 51.9219 15.3128 51.2708 14.0107 49.9688C12.7607 48.7188 12.1357 47.1562 12.1357 45.2812V34.1875C12.1357 32.3125 12.7607 30.75 14.0107 29.5C15.3128 28.1979 16.9014 27.5469 18.7764 27.5469H21.667L27.8389 13.3281C28.3076 12.4427 28.9847 12 29.8701 12H30.2607C32.0837 12 33.568 12.599 34.7139 13.7969C35.9118 14.9427 36.5107 16.401 36.5107 18.1719V23.0938H44.4795ZM16.5107 45.2812C16.5107 45.9583 16.7191 46.5052 17.1357 46.9219C17.5524 47.2865 18.0993 47.4688 18.7764 47.4688H20.9639V31.9219H18.7764C18.0993 31.9219 17.5524 32.1302 17.1357 32.5469C16.7191 32.9635 16.5107 33.5104 16.5107 34.1875V45.2812ZM46.667 30.2031C46.7712 29.526 46.5889 28.9271 46.1201 28.4062C45.7034 27.8333 45.1566 27.5469 44.4795 27.5469H34.3232C33.5941 27.5469 33.0212 27.3385 32.6045 26.9219C32.2399 26.5052 32.0576 25.9583 32.0576 25.2812V18.1719C32.0576 17.8594 31.9535 17.5729 31.7451 17.3125C31.5889 17 31.4066 16.7917 31.1982 16.6875L25.417 30.2031V47.4688H41.5889C42.1618 47.4688 42.6566 47.2865 43.0732 46.9219C43.4899 46.5573 43.7503 46.1406 43.8545 45.6719L46.667 30.2031Z" fill="#470CED"/>
</g>
<defs>
<clipPath id="clip0_2076_95688">
<rect width="64" height="64" fill="white"/>
</clipPath>
</defs>
</svg>
