<svg width="64" height="65" viewBox="0 0 64 65" fill="none" xmlns="http://www.w3.org/2000/svg">
<g clip-path="url(#clip0_1408_32840)">
<path d="M0 8.29688C0 3.8786 3.58172 0.296875 8 0.296875H56C60.4183 0.296875 64 3.8786 64 8.29688V56.2969C64 60.7152 60.4183 64.2969 56 64.2969H8C3.58172 64.2969 0 60.7152 0 56.2969V8.29688Z" fill="#D1EFFF"/>
<path d="M39.9297 31.2026C42.8464 32.2964 45.1901 34.1453 46.9609 36.7495C48.7839 39.3016 49.6953 42.2443 49.6953 45.5776V50.0308C49.6953 50.7078 49.487 51.2547 49.0703 51.6714C48.7057 52.0881 48.1849 52.2964 47.5078 52.2964H16.4141C15.737 52.2964 15.1901 52.0881 14.7734 51.6714C14.4089 51.2547 14.2266 50.7078 14.2266 50.0308V45.5776C14.2266 42.2443 15.112 39.3016 16.8828 36.7495C18.7057 34.1453 21.0755 32.2964 23.9922 31.2026C21.9089 29.1193 20.8672 26.5412 20.8672 23.4683C20.8672 21.9058 21.1536 20.4474 21.7266 19.0933C22.2995 17.7391 23.0807 16.5672 24.0703 15.5776C25.112 14.5881 26.2839 13.8068 27.5859 13.2339C28.9401 12.661 30.3984 12.3745 31.9609 12.3745C33.5234 12.3745 34.9818 12.661 36.3359 13.2339C37.6901 13.8068 38.862 14.5881 39.8516 15.5776C40.8411 16.5672 41.6224 17.7391 42.1953 19.0933C42.7682 20.4474 43.0547 21.9058 43.0547 23.4683C43.0547 26.5412 42.013 29.1193 39.9297 31.2026ZM31.9609 16.7495C30.0859 16.7495 28.4974 17.4006 27.1953 18.7026C25.9453 19.9526 25.3203 21.5412 25.3203 23.4683C25.3203 25.3433 25.9453 26.9318 27.1953 28.2339C28.4974 29.4839 30.0859 30.1089 31.9609 30.1089C33.8359 30.1089 35.3984 29.4839 36.6484 28.2339C37.9505 26.9318 38.6016 25.3433 38.6016 23.4683C38.6016 21.5412 37.9505 19.9526 36.6484 18.7026C35.3984 17.4006 33.8359 16.7495 31.9609 16.7495ZM45.2422 45.5776C45.2422 44.0151 44.9557 42.5828 44.3828 41.2808C43.8099 39.9266 43.0286 38.7547 42.0391 37.7651C41.0495 36.7235 39.8776 35.9162 38.5234 35.3433C37.2214 34.7703 35.7891 34.4839 34.2266 34.4839H29.7734C28.2109 34.4839 26.7526 34.7703 25.3984 35.3433C24.0443 35.9162 22.8724 36.7235 21.8828 37.7651C20.8932 38.7547 20.112 39.9266 19.5391 41.2808C18.9661 42.5828 18.6797 44.0151 18.6797 45.5776V47.8433H45.2422V45.5776Z" fill="#0040B0"/>
</g>
<defs>
<clipPath id="clip0_1408_32840">
<rect width="64" height="64" fill="white" transform="translate(0 0.296875)"/>
</clipPath>
</defs>
</svg>
