<svg width="64" height="64" viewBox="0 0 64 64" fill="none" xmlns="http://www.w3.org/2000/svg">
<g clip-path="url(#clip0_2076_95680)">
<path d="M0 8C0 3.58172 3.58172 0 8 0H56C60.4183 0 64 3.58172 64 8V56C64 60.4183 60.4183 64 56 64H8C3.58172 64 0 60.4183 0 56V8Z" fill="#FFF3B8"/>
<path d="M34.208 46.8697C33.8955 46.8697 33.609 46.7916 33.3486 46.6353C32.5674 46.2708 32.1768 45.6718 32.1768 44.8385V18.9791C32.1768 18.1458 32.5674 17.5468 33.3486 17.1822C34.0257 16.8176 34.7288 16.8958 35.458 17.4166L51.5518 30.3072C52.0726 30.6718 52.333 31.1926 52.333 31.8697C52.333 32.5989 52.0726 33.1197 51.5518 33.4322L35.458 46.401C35.0934 46.7135 34.6768 46.8697 34.208 46.8697ZM36.083 23.0416V40.4635L46.9424 31.7135L36.083 23.0416ZM14.3643 46.8697C14.1038 46.8697 13.8174 46.8176 13.5049 46.7135C12.7236 46.2968 12.333 45.6718 12.333 44.8385V18.901C12.333 18.0676 12.7236 17.4687 13.5049 17.1041C14.182 16.7395 14.8851 16.8176 15.6143 17.3385L31.4736 30.3072C31.9424 30.6718 32.1768 31.1926 32.1768 31.8697C32.1768 32.4947 31.9424 33.0155 31.4736 33.4322L15.6143 46.401C15.2497 46.7135 14.833 46.8697 14.3643 46.8697ZM16.3174 23.4322V40.8541L27.0205 32.1822L16.3174 23.4322Z" fill="#A93E00"/>
</g>
<defs>
<clipPath id="clip0_2076_95680">
<rect width="64" height="64" fill="white"/>
</clipPath>
</defs>
</svg>
