<svg width="64" height="65" viewBox="0 0 64 65" fill="none" xmlns="http://www.w3.org/2000/svg">
<g clip-path="url(#clip0_1408_32848)">
<path d="M0 8.29688C0 3.8786 3.58172 0.296875 8 0.296875H56C60.4183 0.296875 64 3.8786 64 8.29688V56.2969C64 60.7152 60.4183 64.2969 56 64.2969H8C3.58172 64.2969 0 60.7152 0 56.2969V8.29688Z" fill="#D1EFFF"/>
<path d="M49.1094 38.3126C49.526 38.4688 49.8125 38.7292 49.9688 39.0938C50.1771 39.4063 50.2812 39.7709 50.2812 40.1876C50.2812 40.3959 50.2292 40.6563 50.125 40.9688C48.4583 44.5105 46.0104 47.2969 42.7812 49.3282C39.6042 51.3595 36.0365 52.3751 32.0781 52.3751C28.9531 52.3751 25.9844 51.6459 23.1719 50.1876C20.4115 48.7813 18.0417 46.8022 16.0625 44.2501V47.8438C16.0625 48.4167 15.8802 48.9115 15.5156 49.3282C15.151 49.6928 14.6823 49.8751 14.1094 49.8751C13.5365 49.8751 13.0417 49.6928 12.625 49.3282C12.2604 48.9115 12.0781 48.4167 12.0781 47.8438V40.1094C12.0781 39.5365 12.2604 39.0678 12.625 38.7032C13.0417 38.3386 13.5365 38.1563 14.1094 38.1563H21.7656C22.3385 38.1563 22.8073 38.3386 23.1719 38.7032C23.5885 39.0678 23.7969 39.5365 23.7969 40.1094C23.7969 40.6824 23.5885 41.1771 23.1719 41.5938C22.8073 41.9584 22.3385 42.1407 21.7656 42.1407H19.5781C21.0885 44.1199 22.9375 45.6563 25.125 46.7501C27.3646 47.8438 29.6823 48.3907 32.0781 48.3907C35.2031 48.3907 38.0417 47.5834 40.5938 45.9688C43.1979 44.3022 45.151 42.0626 46.4531 39.2501C46.7135 38.7813 47.1042 38.4428 47.625 38.2344C48.1458 38.0261 48.6406 38.0521 49.1094 38.3126ZM50.0469 14.9531C50.6198 14.9531 51.0885 15.1615 51.4531 15.5781C51.8698 15.9427 52.0781 16.4115 52.0781 16.9844V24.7188C52.0781 25.2917 51.8698 25.7604 51.4531 26.125C51.0885 26.4896 50.6198 26.6719 50.0469 26.6719H42.3906C41.8177 26.6719 41.3229 26.4896 40.9062 26.125C40.5417 25.7604 40.3594 25.2917 40.3594 24.7188C40.3594 24.1459 40.5417 23.6771 40.9062 23.3125C41.3229 22.8959 41.8177 22.6875 42.3906 22.6875H44.5781C43.0156 20.7084 41.1406 19.1719 38.9531 18.0781C36.7656 16.9844 34.474 16.4375 32.0781 16.4375C28.901 16.4375 26.0365 17.2448 23.4844 18.8594C20.9323 20.474 19.0052 22.6875 17.7031 25.5C17.5469 25.9167 17.2865 26.2292 16.9219 26.4375C16.6094 26.5938 16.2708 26.6719 15.9062 26.6719C15.4896 26.6719 15.2031 26.6198 15.0469 26.5157C14.6302 26.3594 14.3177 26.125 14.1094 25.8125C13.9531 25.4479 13.875 25.0834 13.875 24.7188C13.875 24.4584 13.9271 24.1719 14.0312 23.8594C15.6979 20.3177 18.1198 17.5313 21.2969 15.5C24.526 13.4167 28.1198 12.375 32.0781 12.375C35.2031 12.375 38.1458 13.1042 40.9062 14.5625C43.7188 16.0208 46.1146 18.0261 48.0938 20.5781V16.9844C48.0938 16.4115 48.276 15.9427 48.6406 15.5781C49.0052 15.1615 49.474 14.9531 50.0469 14.9531Z" fill="#0040B0"/>
</g>
<defs>
<clipPath id="clip0_1408_32848">
<rect width="64" height="64" fill="white" transform="translate(0 0.296875)"/>
</clipPath>
</defs>
</svg>
