<svg width="64" height="64" viewBox="0 0 64 64" fill="none" xmlns="http://www.w3.org/2000/svg">
<g clip-path="url(#clip0_2076_95705)">
<path d="M0 8C0 3.58172 3.58172 0 8 0H56C60.4183 0 64 3.58172 64 8V56C64 60.4183 60.4183 64 56 64H8C3.58172 64 0 60.4183 0 56V8Z" fill="#FFF3B8"/>
<path d="M46.5312 32.0781C48.1979 32.8073 49.5 33.901 50.4375 35.3594C51.4271 36.8177 51.9219 38.5104 51.9219 40.4375V44.0312C51.9219 44.6042 51.7656 45.0729 51.4531 45.4375C51.1406 45.75 50.6979 45.9062 50.125 45.9062H44.7344V47.7031C44.7344 48.276 44.5521 48.7188 44.1875 49.0312C43.875 49.3438 43.4323 49.5 42.8594 49.5H21.1406C20.5677 49.5 20.099 49.3438 19.7344 49.0312C19.4219 48.7188 19.2656 48.276 19.2656 47.7031V45.9062H13.875C13.3021 45.9062 12.8333 45.75 12.4688 45.4375C12.1562 45.0729 12 44.6042 12 44.0312V40.4375C12 38.6146 12.4948 36.974 13.4844 35.5156C14.474 34.0573 15.75 32.9635 17.3125 32.2344C16.2188 30.9844 15.6719 29.474 15.6719 27.7031C15.6719 26.7135 15.8542 25.776 16.2188 24.8906C16.6354 24.0052 17.1562 23.25 17.7812 22.625C18.4583 21.9479 19.2396 21.4271 20.125 21.0625C21.0104 20.6458 21.9479 20.4375 22.9375 20.4375C23.1979 20.4375 23.4583 20.4635 23.7188 20.5156C24.0312 20.5156 24.3177 20.5677 24.5781 20.6719C25.4115 19.474 26.4531 18.5365 27.7031 17.8594C29.0052 17.1823 30.4375 16.8438 32 16.8438C33.5104 16.8438 34.9167 17.1823 36.2188 17.8594C37.5208 18.5365 38.5885 19.474 39.4219 20.6719C39.6823 20.5677 39.9167 20.5156 40.125 20.5156C40.3854 20.4635 40.6458 20.4375 40.9062 20.4375C41.8958 20.4375 42.8333 20.6458 43.7188 21.0625C44.6042 21.4271 45.3594 21.9479 45.9844 22.625C46.6615 23.25 47.1823 24.0052 47.5469 24.8906C47.9635 25.776 48.1719 26.7135 48.1719 27.7031C48.1719 28.5365 47.9896 29.3177 47.625 30.0469C47.3125 30.776 46.9479 31.4531 46.5312 32.0781ZM41.0625 24.1094V25.9062C41.0625 26.9479 40.9062 27.9375 40.5938 28.875C40.2812 29.8125 39.8385 30.6458 39.2656 31.375H40.9062C41.8958 31.375 42.7292 31.0365 43.4062 30.3594C44.1354 29.6302 44.5 28.7448 44.5 27.7031C44.5 26.7135 44.1875 25.8802 43.5625 25.2031C42.9375 24.474 42.1042 24.1094 41.0625 24.1094ZM32 20.4375C30.4375 20.4375 29.1354 20.9844 28.0938 22.0781C27.0521 23.1198 26.5312 24.3958 26.5312 25.9062C26.5312 27.4167 27.0521 28.7188 28.0938 29.8125C29.1354 30.8542 30.4375 31.375 32 31.375C33.5104 31.375 34.7865 30.8542 35.8281 29.8125C36.9219 28.7188 37.4688 27.4167 37.4688 25.9062C37.4688 24.3958 36.9219 23.1198 35.8281 22.0781C34.7865 20.9844 33.5104 20.4375 32 20.4375ZM22.7812 24.1094C21.7396 24.1094 20.8542 24.474 20.125 25.2031C19.4479 25.8802 19.1094 26.7135 19.1094 27.7031C19.1094 28.7448 19.4479 29.6302 20.125 30.3594C20.8542 31.0365 21.7396 31.375 22.7812 31.375H24.7344C24.1615 30.6458 23.7188 29.8125 23.4062 28.875C23.0938 27.9375 22.9375 26.9479 22.9375 25.9062C22.9375 25.6458 22.9375 25.3594 22.9375 25.0469C22.9375 24.6823 22.9896 24.3698 23.0938 24.1094H22.7812ZM15.6719 42.2344H19.5C19.6562 40.776 20.0469 39.4219 20.6719 38.1719C21.2969 36.9219 22.1042 35.8542 23.0938 34.9688H21.1406C19.5781 34.9688 18.276 35.4896 17.2344 36.5312C16.1927 37.5729 15.6719 38.875 15.6719 40.4375V42.2344ZM41.0625 44.0312C41.0625 42.7812 40.8281 41.6094 40.3594 40.5156C39.8906 39.3698 39.2396 38.4062 38.4062 37.625C37.625 36.7917 36.6615 36.1406 35.5156 35.6719C34.4219 35.2031 33.25 34.9688 32 34.9688C30.75 34.9688 29.5521 35.2031 28.4062 35.6719C27.3125 36.1406 26.349 36.7917 25.5156 37.625C24.7344 38.4062 24.1094 39.3698 23.6406 40.5156C23.1719 41.6094 22.9375 42.7812 22.9375 44.0312V45.9062H41.0625V44.0312ZM48.3281 40.4375C48.3281 38.875 47.8073 37.5729 46.7656 36.5312C45.724 35.4896 44.4219 34.9688 42.8594 34.9688H40.9062C41.8958 35.8542 42.7031 36.9219 43.3281 38.1719C43.9531 39.4219 44.3438 40.776 44.5 42.2344H48.3281V40.4375Z" fill="#A93E00"/>
</g>
<defs>
<clipPath id="clip0_2076_95705">
<rect width="64" height="64" fill="white"/>
</clipPath>
</defs>
</svg>
