<svg width="64" height="65" viewBox="0 0 64 65" fill="none" xmlns="http://www.w3.org/2000/svg">
<g clip-path="url(#clip0_1408_32856)">
<path d="M0 8.29688C0 3.8786 3.58172 0.296875 8 0.296875H56C60.4183 0.296875 64 3.8786 64 8.29688V56.2969C64 60.7152 60.4183 64.2969 56 64.2969H8C3.58172 64.2969 0 60.7152 0 56.2969V8.29688Z" fill="#D1EFFF"/>
<path d="M32 43.1562V46.4375H33.6406C34.7344 46.4375 35.2812 47.0104 35.2812 48.1562C35.2812 48.625 35.125 49.0156 34.8125 49.3281C34.5521 49.6406 34.1615 49.7969 33.6406 49.7969H23.6406C23.1719 49.7969 22.7812 49.6406 22.4688 49.3281C22.1562 49.0156 22 48.625 22 48.1562C22 47.6354 22.1562 47.2188 22.4688 46.9062C22.7812 46.5938 23.1719 46.4375 23.6406 46.4375H28.6406V43.1562H17C15.5938 43.1562 14.3958 42.6875 13.4062 41.75C12.4688 40.7604 12 39.5625 12 38.1562V21.5156C12 20.1094 12.4688 18.9375 13.4062 18C14.3958 17.0104 15.5938 16.5156 17 16.5156H43.6406C45.0469 16.5156 46.2188 17.0104 47.1562 18C48.1458 18.9375 48.6406 20.1094 48.6406 21.5156V24.875C48.6406 25.3438 48.4844 25.7344 48.1719 26.0469C47.8594 26.3594 47.4427 26.5156 46.9219 26.5156C46.4531 26.5156 46.0625 26.3594 45.75 26.0469C45.4375 25.7344 45.2812 25.3438 45.2812 24.875V21.5156C45.2812 20.4219 44.7344 19.875 43.6406 19.875H17C15.9062 19.875 15.3594 20.4219 15.3594 21.5156V38.1562C15.3594 39.25 15.9062 39.7969 17 39.7969H33.6406C34.7344 39.7969 35.2812 40.3698 35.2812 41.5156C35.2812 41.9844 35.125 42.375 34.8125 42.6875C34.5521 43 34.1615 43.1562 33.6406 43.1562H32ZM50.2812 29.7969C51.375 29.7969 51.9219 30.3698 51.9219 31.5156V48.1562C51.9219 48.625 51.7656 49.0156 51.4531 49.3281C51.1927 49.6406 50.8021 49.7969 50.2812 49.7969H40.2812C39.8125 49.7969 39.4219 49.6406 39.1094 49.3281C38.7969 49.0156 38.6406 48.625 38.6406 48.1562V31.5156C38.6406 30.9948 38.7969 30.5781 39.1094 30.2656C39.4219 29.9531 39.8125 29.7969 40.2812 29.7969H50.2812ZM42 33.1562V44.7969H48.6406V33.1562H42Z" fill="#0040B0"/>
</g>
<defs>
<clipPath id="clip0_1408_32856">
<rect width="64" height="64" fill="white" transform="translate(0 0.296875)"/>
</clipPath>
</defs>
</svg>
