<svg width="64" height="64" viewBox="0 0 64 64" fill="none" xmlns="http://www.w3.org/2000/svg">
<g clip-path="url(#clip0_2076_95697)">
<path d="M0 8C0 3.58172 3.58172 0 8 0H56C60.4183 0 64 3.58172 64 8V56C64 60.4183 60.4183 64 56 64H8C3.58172 64 0 60.4183 0 56V8Z" fill="#D1EFFF"/>
<path d="M45.9844 12.0781C47.7031 12.0781 49.1354 12.651 50.2812 13.7969C51.4271 14.9427 52 16.349 52 18.0156V49.9688C52 50.3854 51.8958 50.75 51.6875 51.0625C51.5312 51.4271 51.2448 51.6615 50.8281 51.7656C50.0469 52.1302 49.2917 52 48.5625 51.375L41.2188 43.9531H18.0938C16.375 43.9531 14.9427 43.3802 13.7969 42.2344C12.651 41.0885 12.0781 39.6823 12.0781 38.0156V18.0156C12.0781 16.349 12.651 14.9427 13.7969 13.7969C14.9427 12.651 16.375 12.0781 18.0938 12.0781H45.9844ZM48.0156 18.0156C48.0156 16.7135 47.3385 16.0625 45.9844 16.0625H18.0938C16.7396 16.0625 16.0625 16.7135 16.0625 18.0156V38.0156C16.0625 39.3177 16.7396 39.9688 18.0938 39.9688H42C42.5208 39.9688 42.9896 40.1771 43.4062 40.5938L48.0156 45.2031V18.0156Z" fill="#0057D2"/>
</g>
<defs>
<clipPath id="clip0_2076_95697">
<rect width="64" height="64" fill="white"/>
</clipPath>
</defs>
</svg>
