<svg width="18" height="18" viewBox="0 0 18 18" fill="none" xmlns="http://www.w3.org/2000/svg">
<path d="M14.1201 5.89761C12.2143 5.57217 11.6045 4.05532 11.403 3.10659C11.3812 3.01282 11.2614 3.01834 11.2451 3.11211C10.9238 5.04265 9.4264 5.66043 8.48984 5.86451C8.39727 5.88658 8.40272 6.00792 8.49529 6.02447C10.4011 6.34991 11.0109 7.86676 11.2124 8.81549C11.2342 8.90926 11.354 8.90374 11.3703 8.80997C11.6916 6.87943 13.189 6.26165 14.1255 6.05757C14.2181 6.0355 14.2127 5.91415 14.1201 5.89761Z" fill="#1D2D3E"/>
<path fill-rule="evenodd" clip-rule="evenodd" d="M4.96154 0C4.68345 0 4.42019 0.126994 4.24491 0.345688L0.20645 5.38446C-0.0587314 5.71532 -0.0695053 6.18597 0.180251 6.52893L8.25717 17.62C8.43118 17.859 8.70688 18 9 18C9.29312 18 9.56882 17.859 9.74283 17.62L17.8197 6.52893C18.0695 6.18597 18.0587 5.71532 17.7935 5.38446L13.7551 0.345688C13.5798 0.126994 13.3165 0 13.0385 0H4.96154ZM2.09011 6.00125L5.4011 1.87013H12.5989L15.9099 6.00125L9 15.4898L2.09011 6.00125Z" fill="#1D2D3E"/>
</svg>
