<svg height="16" viewBox="0 0 16 16" width="16" xmlns="http://www.w3.org/2000/svg"><path d="m0 0h16v16h-16z" fill="#fff" opacity="0"/><path d="m13.2 15h-8.4c-1.54 0-2.8-1.26-2.8-2.8v-1.38c0-.44.36-.8.8-.8s.8.36.8.8v1.38c0 .66.54 1.2 1.2 1.2h8.4c.66 0 1.2-.54 1.2-1.2v-8.4c0-.66-.54-1.2-1.2-1.2h-8.4c-.66 0-1.2.54-1.2 1.2v.49c0 .44-.36.8-.8.8s-.8-.36-.8-.8v-.49c0-1.54 1.26-2.8 2.8-2.8h8.4c1.54 0 2.8 1.26 2.8 2.8v8.4c0 1.54-1.26 2.8-2.8 2.8zm-4.4-3.8c-.2 0-.41-.08-.57-.23-.31-.31-.31-.82 0-1.13l1.23-1.23h-8.66c-.44 0-.8-.36-.8-.8s.36-.8.8-.8h8.27l-.83-.83c-.31-.31-.31-.82 0-1.13s.82-.31 1.13 0l2.4 2.4c.31.31.31.82 0 1.13l-2.4 2.4c-.16.16-.36.23-.57.23z"/></svg>