<svg width="12" height="17" viewBox="0 0 12 17" fill="none" xmlns="http://www.w3.org/2000/svg">
  <path d="M8.26 16.2874H3.75C3.31 16.2874 2.95 15.9274 2.95 15.4874C2.95 15.0474 3.31 14.6874 3.75 14.6874H8.26C8.7 14.6874 9.06 15.0474 9.06 15.4874C9.06 15.9274 8.7 16.2874 8.26 16.2874ZM3.75 13.3274C3.54 13.3274 3.34 13.2474 3.19 13.0974C3.04 12.9474 2.95 12.7374 2.95 12.5274C2.95 11.0874 2.3 10.2774 1.55 9.33735C0.829999 8.42735 0 7.40735 0 5.82735C0 2.87735 2.81 0.287354 6.02 0.287354C9.23 0.287354 12 2.88735 12 5.85735C12 7.44735 11.17 8.46735 10.43 9.36735C9.69 10.2774 9.04 11.0674 9.04 12.4474C9.04 12.8874 8.69 13.2374 8.25 13.2474L3.75 13.3274C3.75 13.3274 3.75 13.3274 3.74 13.3274H3.75ZM6.02 1.88735C3.67 1.88735 1.6 3.72735 1.6 5.82735C1.6 6.84735 2.13 7.50735 2.8 8.33735C3.5 9.21735 4.29 10.1974 4.5 11.7174L7.51 11.6674C7.72 10.1874 8.5 9.22735 9.2 8.35735C9.87 7.52735 10.41 6.87735 10.41 5.85735C10.41 3.74735 8.36 1.88735 6.03 1.88735H6.02Z" fill="#0057D2"/>
</svg>
