<svg width="14" height="14" viewBox="0 0 14 14" fill="none" xmlns="http://www.w3.org/2000/svg">
  <path d="M11.9766 8.28516C12.1771 8.28516 12.3411 8.34896 12.4688 8.47656C12.6146 8.60417 12.6875 8.76823 12.6875 8.96875V11.0469C12.6875 11.6302 12.487 12.1224 12.0859 12.5234C11.6849 12.9245 11.1927 13.125 10.6094 13.125H2.51562C1.93229 13.125 1.4401 12.9245 1.03906 12.5234C0.638021 12.1224 0.4375 11.6302 0.4375 11.0469V2.95312C0.4375 2.36979 0.638021 1.8776 1.03906 1.47656C1.4401 1.07552 1.93229 0.875 2.51562 0.875H5.76953C5.97005 0.875 6.13411 0.947917 6.26172 1.09375C6.40755 1.22135 6.48047 1.38542 6.48047 1.58594C6.48047 1.78646 6.40755 1.95052 6.26172 2.07812C6.13411 2.20573 5.97005 2.26953 5.76953 2.26953H2.51562C2.3151 2.26953 2.15104 2.34245 2.02344 2.48828C1.89583 2.61589 1.83203 2.77083 1.83203 2.95312V11.0469C1.83203 11.2474 1.89583 11.4115 2.02344 11.5391C2.15104 11.6667 2.3151 11.7305 2.51562 11.7305H10.6094C10.8099 11.7305 10.974 11.6667 11.1016 11.5391C11.2292 11.4115 11.293 11.2474 11.293 11.0469V8.96875C11.293 8.76823 11.3568 8.60417 11.4844 8.47656C11.612 8.34896 11.776 8.28516 11.9766 8.28516ZM13.3438 3.88281C13.4896 3.99219 13.5625 4.15625 13.5625 4.375C13.5625 4.57552 13.4896 4.7487 13.3438 4.89453L10.3633 7.68359C10.2357 7.8112 10.0807 7.875 9.89844 7.875C9.69792 7.875 9.52474 7.80208 9.37891 7.65625C9.28776 7.5651 9.22396 7.42839 9.1875 7.24609V7.16406C9.1875 6.98177 9.26042 6.81771 9.40625 6.67188L11.1016 5.08594H9.89844C9.51562 5.08594 9.15104 5.15885 8.80469 5.30469C8.45833 5.45052 8.15755 5.65104 7.90234 5.90625C7.64714 6.16146 7.44661 6.46224 7.30078 6.80859C7.15495 7.13672 7.08203 7.49219 7.08203 7.875V9.81641C7.08203 10.0169 7.01823 10.181 6.89062 10.3086C6.76302 10.4362 6.59896 10.5 6.39844 10.5C6.19792 10.5 6.02474 10.4362 5.87891 10.3086C5.7513 10.181 5.6875 10.0169 5.6875 9.81641V7.875C5.6875 7.29167 5.79688 6.75391 6.01562 6.26172C6.23438 5.7513 6.53516 5.30469 6.91797 4.92188C7.30078 4.53906 7.7474 4.23828 8.25781 4.01953C8.76823 3.80078 9.3151 3.69141 9.89844 3.69141H11.1016L9.40625 2.07812C9.26042 1.93229 9.1875 1.76823 9.1875 1.58594V1.53125C9.22396 1.36719 9.28776 1.22135 9.37891 1.09375C9.52474 0.947917 9.69792 0.875 9.89844 0.875C10.0443 0.875 10.1992 0.938802 10.3633 1.06641L13.3438 3.88281Z" fill="black"/>
</svg>
