<svg width="18" height="14" viewBox="0 0 18 14" fill="none" xmlns="http://www.w3.org/2000/svg">
  <path d="M17.1 13.75H0.899999C0.404999 13.75 0 13.345 0 12.85C0 12.355 0.404999 11.95 0.899999 11.95H17.1C17.595 11.95 18 12.355 18 12.85C18 13.345 17.595 13.75 17.1 13.75ZM17.1 7.9H0.899999C0.404999 7.9 0 7.495 0 7C0 6.505 0.404999 6.1 0.899999 6.1H17.1C17.595 6.1 18 6.505 18 7C18 7.495 17.595 7.9 17.1 7.9ZM17.1 2.05H0.899999C0.404999 2.05 0 1.645 0 1.15C0 0.655 0.404999 0.25 0.899999 0.25H17.1C17.595 0.25 18 0.655 18 1.15C18 1.645 17.595 2.05 17.1 2.05Z" fill="#354A5F"/>
</svg>
