<svg width="16" height="14" viewBox="0 0 16 14" fill="none" xmlns="http://www.w3.org/2000/svg">
  <path d="M8.8 9.98295C8.58 9.98295 8.37 9.89347 8.21 9.72443C7.91 9.39631 7.93 8.89915 8.26 8.60085L10.02 7L8.26 5.39915C7.93 5.10085 7.91 4.60369 8.21 4.27557C8.51 3.94744 9.01 3.92756 9.34 4.22585L11.74 6.41335C11.91 6.5625 12 6.78125 12 7C12 7.21875 11.91 7.4375 11.74 7.58665L9.34 9.77415C9.19 9.91335 8.99 9.98295 8.8 9.98295ZM16 11.2159V2.78409C16 1.25284 14.74 0 13.2 0H2.8C1.26 0 0 1.25284 0 2.78409V11.2159C0 12.7472 1.26 14 2.8 14H13.2C14.74 14 16 12.7472 16 11.2159ZM5.3 1.59091H13.2C13.86 1.59091 14.4 2.12784 14.4 2.78409V11.2159C14.4 11.8722 13.86 12.4091 13.2 12.4091H5.3V1.59091ZM3.7 1.59091V12.4091H2.8C2.14 12.4091 1.6 11.8722 1.6 11.2159V2.78409C1.6 2.12784 2.14 1.59091 2.8 1.59091H3.7Z" fill="#354A5F"/>
</svg>
