<svg width="18" height="19" viewBox="0 0 18 19" fill="none" xmlns="http://www.w3.org/2000/svg">
<path d="M15.3451 17.6484H2.65509C1.68759 17.6484 0.798839 17.1422 0.326339 16.3097C-0.123661 15.5109 -0.112411 14.5659 0.360089 13.7784L6.70509 3.18094C7.18884 2.38219 8.04384 1.89844 9.00009 1.89844C9.95634 1.89844 10.8113 2.38219 11.2951 3.18094L17.6401 13.7784C18.1126 14.5659 18.1238 15.5109 17.6738 16.3097C17.2013 17.1309 16.3126 17.6484 15.3451 17.6484ZM9.00009 3.69844C8.68509 3.69844 8.40384 3.85594 8.24634 4.10344L1.91259 14.7009C1.72134 15.0159 1.82259 15.2859 1.91259 15.4209C2.05884 15.6909 2.35134 15.8484 2.67759 15.8484H15.3563C15.6826 15.8484 15.9638 15.6909 16.1213 15.4209C16.2001 15.2859 16.3013 15.0159 16.1213 14.7009L9.75384 4.10344C9.59634 3.84469 9.31509 3.69844 9.00009 3.69844ZM9.00009 14.8584C8.39259 14.8584 7.89759 14.3634 7.89759 13.7559C7.89759 13.1484 8.39259 12.6534 9.00009 12.6534C9.60759 12.6534 10.1026 13.1484 10.1026 13.7559C10.1026 14.3634 9.60759 14.8584 9.00009 14.8584ZM9.00009 11.1684C8.50509 11.1684 8.10009 10.7634 8.10009 10.2684V7.27594C8.10009 6.78094 8.50509 6.37594 9.00009 6.37594C9.49509 6.37594 9.90009 6.78094 9.90009 7.27594V10.2684C9.90009 10.7634 9.49509 11.1684 9.00009 11.1684Z" fill="#1D2D3E"/>
</svg>
