<svg width="18" height="17" viewBox="0 0 18 17" fill="none" xmlns="http://www.w3.org/2000/svg">
  <path d="M17.1562 13.4492C17.3906 13.7539 17.5078 14.0234 17.5078 14.2578C17.5078 14.375 17.4961 14.457 17.4727 14.5039C17.3086 14.8555 17.0039 15.0312 16.5586 15.0312H11.7773C11.5898 15.5938 11.25 16.0625 10.7578 16.4375C10.2891 16.8125 9.72656 17 9.07031 17C8.41406 17 7.83984 16.8125 7.34766 16.4375C6.87891 16.0625 6.55078 15.5938 6.36328 15.0312H1.58203C1.20703 15.0312 0.925781 14.8672 0.738281 14.5391C0.667969 14.3516 0.632812 14.1992 0.632812 14.082C0.632812 13.8477 0.703125 13.6602 0.84375 13.5195C0.914062 13.4492 1.01953 13.3086 1.16016 13.0977C1.32422 12.8867 1.42969 12.7461 1.47656 12.6758C1.80469 12.207 2.05078 11.7148 2.21484 11.1992C2.40234 10.6836 2.49609 10.1211 2.49609 9.51172V7.64844C2.49609 6.89844 2.57812 6.08984 2.74219 5.22266C2.90625 4.35547 3.22266 3.55859 3.69141 2.83203C4.18359 2.05859 4.86328 1.42578 5.73047 0.933594C6.62109 0.417969 7.73438 0.160156 9.07031 0.160156C10.4062 0.160156 11.5078 0.40625 12.375 0.898438C13.2422 1.39062 13.9219 2.01172 14.4141 2.76172C14.9062 3.51172 15.2344 4.33203 15.3984 5.22266C15.5625 6.08984 15.6445 6.89844 15.6445 7.64844V9.51172C15.6445 10.1211 15.7148 10.6836 15.8555 11.1992C16.0195 11.6914 16.2305 12.1016 16.4883 12.4297C16.582 12.6172 16.6875 12.8047 16.8047 12.9922C16.9219 13.1797 17.0391 13.332 17.1562 13.4492ZM14.6953 13.2734C14.4609 12.8047 14.2266 12.2656 13.9922 11.6562C13.7812 11.0234 13.6758 10.3086 13.6758 9.51172V7.64844C13.6758 6.99219 13.6055 6.32422 13.4648 5.64453C13.3477 4.94141 13.1016 4.33203 12.7266 3.81641C12.3984 3.27734 11.9531 2.84375 11.3906 2.51562C10.8281 2.1875 10.043 2.02344 9.03516 2.02344C8.00391 2.02344 7.19531 2.1875 6.60938 2.51562C6.02344 2.84375 5.58984 3.27734 5.30859 3.81641C4.98047 4.33203 4.74609 4.94141 4.60547 5.64453C4.46484 6.32422 4.39453 6.99219 4.39453 7.64844V9.51172C4.39453 10.3086 4.28906 11.0234 4.07812 11.6562C3.86719 12.2656 3.62109 12.8047 3.33984 13.2734H14.6953Z" fill="#354A5F"/>
</svg>
