<svg width="16" height="16" viewBox="0 0 16 16" fill="none" xmlns="http://www.w3.org/2000/svg">
<path fill-rule="evenodd" clip-rule="evenodd" d="M8 1.6C4.46538 1.6 1.6 4.46538 1.6 8C1.6 11.5346 4.46538 14.4 8 14.4C11.5346 14.4 14.4 11.5346 14.4 8C14.4 4.46538 11.5346 1.6 8 1.6ZM0 8C0 3.58172 3.58172 0 8 0C12.4183 0 16 3.58172 16 8C16 12.4183 12.4183 16 8 16C3.58172 16 0 12.4183 0 8ZM7.34541 4.01592C7.78724 4.01592 8.14541 4.37409 8.14541 4.81592V7.97855L10.6101 9.85039C10.962 10.1176 11.0306 10.6195 10.7634 10.9713C10.4961 11.3232 9.99428 11.3918 9.64242 11.1246L6.8618 9.01282C6.64563 8.84865 6.53637 8.5959 6.54622 8.34379C6.54568 8.33177 6.54541 8.31969 6.54541 8.30753V4.81592C6.54541 4.37409 6.90358 4.01592 7.34541 4.01592Z" fill="#223548"/>
</svg>
