<svg width="24" height="25" viewBox="0 0 24 25" fill="none" xmlns="http://www.w3.org/2000/svg">
    <path d="M17.5312 0.920898C18.5625 0.920898 19.4062 1.28027 20.0625 1.99902C20.7188 2.68652 21.0469 3.5459 21.0469 4.57715V21.2646C21.0469 22.2959 20.6875 23.1553 19.9688 23.8428C19.2812 24.5615 18.4219 24.9209 17.3906 24.9209H6.65625C5.625 24.9209 4.75 24.5615 4.03125 23.8428C3.34375 23.1553 3 22.2959 3 21.2646V4.57715C3 3.5459 3.34375 2.68652 4.03125 1.99902C4.75 1.28027 5.625 0.920898 6.65625 0.920898H17.5312ZM18.75 4.57715C18.75 4.2334 18.625 3.95215 18.375 3.7334C18.1562 3.4834 17.875 3.3584 17.5312 3.3584H6.79688C6.42188 3.3584 6.125 3.4834 5.90625 3.7334C5.6875 3.95215 5.57812 4.2334 5.57812 4.57715V21.2646C5.57812 21.6084 5.6875 21.9053 5.90625 22.1553C6.125 22.374 6.42188 22.4834 6.79688 22.4834H17.5312C17.875 22.4834 18.1562 22.374 18.375 22.1553C18.625 21.9053 18.75 21.6084 18.75 21.2646V4.57715Z" fill="#1D2D3E"/>
</svg>
