<svg width="19" height="19" viewBox="0 0 19 19" fill="none" xmlns="http://www.w3.org/2000/svg">
<path d="M18.5601 8.50781C18.771 8.71875 18.8765 8.95312 18.8765 9.21094C18.8765 9.46875 18.771 9.70312 18.5601 9.91406L14.5874 13.8867C14.3765 14.0977 14.1421 14.2031 13.8843 14.2031C13.603 14.2031 13.3687 14.0977 13.1812 13.8867C12.9702 13.6992 12.8647 13.4766 12.8647 13.2188C12.8647 12.9141 12.9702 12.6797 13.1812 12.5156L16.4507 9.21094L13.1812 5.90625C12.9702 5.71875 12.8647 5.48438 12.8647 5.20312C12.8647 4.92188 12.9702 4.69922 13.1812 4.53516C13.3687 4.32422 13.603 4.21875 13.8843 4.21875C14.1421 4.21875 14.3765 4.32422 14.5874 4.53516L18.5601 8.50781ZM6.57178 4.53516C6.78271 4.69922 6.88818 4.92188 6.88818 5.20312C6.88818 5.48438 6.78271 5.71875 6.57178 5.90625L3.30225 9.21094L6.57178 12.5156C6.78271 12.6797 6.88818 12.9141 6.88818 13.2188C6.88818 13.4766 6.78271 13.6992 6.57178 13.8867C6.40771 14.0977 6.18506 14.2031 5.90381 14.2031C5.62256 14.2031 5.38818 14.0977 5.20068 13.8867L1.19287 9.91406C1.00537 9.72656 0.911621 9.49219 0.911621 9.21094C0.911621 8.92969 1.00537 8.69531 1.19287 8.50781L5.20068 4.53516C5.38818 4.32422 5.62256 4.21875 5.90381 4.21875C6.18506 4.21875 6.40771 4.32422 6.57178 4.53516Z" fill="#1D2D3E"/>
</svg>
