<svg width="18" height="18" viewBox="0 0 18 18" fill="none" xmlns="http://www.w3.org/2000/svg">
<path d="M10.5117 12.0586C10.3477 12.2461 10.1367 12.3398 9.87891 12.3398C9.64453 12.3398 9.44531 12.2461 9.28125 12.0586L6.29297 9.10547L1.54688 13.8867C1.38281 14.0508 1.17188 14.1328 0.914062 14.1328C0.65625 14.1328 0.445312 14.0508 0.28125 13.8867C0.09375 13.6523 0 13.4414 0 13.2539C0 13.0195 0.09375 12.8086 0.28125 12.6211L5.66016 7.24219C5.82422 7.05469 6.03516 6.96094 6.29297 6.96094C6.55078 6.96094 6.76172 7.05469 6.92578 7.24219L9.87891 10.1953L14.9414 5.13281H13.2891C13.0312 5.13281 12.8086 5.05078 12.6211 4.88672C12.457 4.72266 12.375 4.51172 12.375 4.25391C12.375 3.99609 12.457 3.78516 12.6211 3.62109C12.8086 3.45703 13.0312 3.375 13.2891 3.375H17.0859C17.6719 3.375 17.9648 3.66797 17.9648 4.25391V8.05078C17.9648 8.30859 17.8828 8.53125 17.7188 8.71875C17.5547 8.88281 17.3438 8.96484 17.0859 8.96484C16.8281 8.96484 16.6172 8.88281 16.4531 8.71875C16.2891 8.53125 16.207 8.30859 16.207 8.05078V6.39844L10.5117 12.0586Z" fill="#36A41D"/>
</svg>
