<svg width="24" height="25" viewBox="0 0 24 25" fill="none" xmlns="http://www.w3.org/2000/svg">
    <path d="M0 12.9531C0 11.2969 0.3125 9.75 0.9375 8.3125C1.5625 6.84375 2.42188 5.5625 3.51562 4.46875C4.60938 3.375 5.875 2.51562 7.3125 1.89062C8.78125 1.26562 10.3438 0.953125 12 0.953125C13.6562 0.953125 15.2031 1.26562 16.6406 1.89062C18.1094 2.51562 19.3906 3.375 20.4844 4.46875C21.5781 5.5625 22.4375 6.84375 23.0625 8.3125C23.6875 9.75 24 11.2969 24 12.9531C24 14.6094 23.6875 16.1719 23.0625 17.6406C22.4375 19.0781 21.5781 20.3438 20.4844 21.4375C19.3906 22.5312 18.1094 23.3906 16.6406 24.0156C15.2031 24.6406 13.6562 24.9531 12 24.9531C10.3438 24.9531 8.78125 24.6406 7.3125 24.0156C5.875 23.3906 4.60938 22.5312 3.51562 21.4375C2.42188 20.3438 1.5625 19.0781 0.9375 17.6406C0.3125 16.1719 0 14.6094 0 12.9531ZM13.6875 3.53125C14.3125 4.3125 14.8594 5.14062 15.3281 6.01562C15.8281 6.89062 16.2188 7.82812 16.5 8.82812H20.6719C19.9844 7.42188 19.0312 6.25 17.8125 5.3125C16.5938 4.375 15.2188 3.78125 13.6875 3.53125ZM7.17188 8.82812C7.73438 6.89062 8.65625 5.14062 9.9375 3.57812C8.46875 3.92188 7.15625 4.5625 6 5.5C4.84375 6.40625 3.95312 7.51562 3.32812 8.82812H7.17188ZM14.1562 8.82812C13.625 7.26562 12.8438 5.90625 11.8125 4.75C10.8125 5.9375 10.0469 7.29688 9.51562 8.82812H14.1562ZM9 11.0781C8.9375 11.3906 8.89062 11.7031 8.85938 12.0156C8.82812 12.2969 8.8125 12.6094 8.8125 12.9531C8.8125 13.2969 8.82812 13.625 8.85938 13.9375C8.89062 14.2188 8.9375 14.5156 9 14.8281H14.6719C14.7656 14.2031 14.8125 13.5781 14.8125 12.9531C14.8125 12.2969 14.7656 11.6719 14.6719 11.0781H9ZM16.9688 11.0781C17 11.3906 17.0156 11.7031 17.0156 12.0156C17.0469 12.2969 17.0625 12.6094 17.0625 12.9531C17.0625 13.2969 17.0469 13.625 17.0156 13.9375C17.0156 14.2188 17 14.5156 16.9688 14.8281H21.4219C21.4844 14.5156 21.5312 14.2188 21.5625 13.9375C21.5938 13.625 21.6094 13.2969 21.6094 12.9531C21.6094 12.6094 21.5938 12.2969 21.5625 12.0156C21.5312 11.7031 21.4844 11.3906 21.4219 11.0781H16.9688ZM2.57812 11.0781C2.51562 11.3906 2.46875 11.7031 2.4375 12.0156C2.40625 12.2969 2.39062 12.6094 2.39062 12.9531C2.39062 13.2969 2.40625 13.625 2.4375 13.9375C2.46875 14.2188 2.51562 14.5156 2.57812 14.8281H6.70312C6.67188 14.5156 6.64062 14.2188 6.60938 13.9375C6.57812 13.625 6.5625 13.2969 6.5625 12.9531C6.5625 12.6094 6.57812 12.2969 6.60938 12.0156C6.64062 11.7031 6.67188 11.3906 6.70312 11.0781H2.57812ZM16.5 17.0781C16.2188 18.0781 15.8281 19.0156 15.3281 19.8906C14.8594 20.7656 14.3125 21.5938 13.6875 22.375C15.2188 22.125 16.5938 21.5312 17.8125 20.5938C19.0312 19.625 19.9844 18.4531 20.6719 17.0781H16.5ZM3.32812 17.0781C3.95312 18.3906 4.84375 19.5156 6 20.4531C7.15625 21.3594 8.46875 21.9844 9.9375 22.3281C8.65625 20.7656 7.73438 19.0156 7.17188 17.0781H3.32812ZM11.8125 21.1562C12.8125 19.9688 13.5781 18.6094 14.1094 17.0781H9.51562C10.0469 18.6094 10.8125 19.9688 11.8125 21.1562Z" fill="#1D2D3E"/>
</svg>
