<svg height="16" viewBox="0 0 16 16" width="16" xmlns="http://www.w3.org/2000/svg"><path d="m0 0h16v16h-16z" fill="#fff" opacity="0"/><path d="m7 10.5c-.44 0-.8-.36-.8-.8v-1.9h-1.9c-.44 0-.8-.36-.8-.8s.36-.8.8-.8h1.9v-1.9c0-.44.36-.8.8-.8s.8.36.8.8v1.9h1.9c.44 0 .8.36.8.8s-.36.8-.8.8h-1.9v1.9c0 .44-.36.8-.8.8z"/><path d="m1.8 7c0-2.9 2.3-5.2 5.2-5.2s5.2 2.3 5.2 5.2-2.3 5.2-5.2 5.2-5.2-2.3-5.2-5.2zm12.4 7.2-3.05-3.05z" fill="none" stroke="#000" stroke-linecap="round" stroke-linejoin="round" stroke-width="1.6"/></svg>