<svg height="16" viewBox="0 0 16 16" width="16" xmlns="http://www.w3.org/2000/svg"><path d="m0 0h16v16h-16z" fill="#fff" opacity="0"/><path fill="red" d="m8 16c-4.41 0-8-3.59-8-8s3.59-8 8-8 8 3.59 8 8-3.59 8-8 8zm0-14.4c-3.53 0-6.4 2.87-6.4 6.4s2.87 6.4 6.4 6.4 6.4-2.87 6.4-6.4-2.87-6.4-6.4-6.4zm2.2 9.4c-.2 0-.41-.08-.57-.23l-1.63-1.63-1.63 1.63c-.31.31-.82.31-1.13 0s-.31-.82 0-1.13l1.63-1.63-1.63-1.63c-.31-.31-.31-.82 0-1.13s.82-.31 1.13 0l1.63 1.63 1.63-1.63c.31-.31.82-.31 1.13 0s.31.82 0 1.13l-1.63 1.63 1.63 1.63c.31.31.31.82 0 1.13-.16.16-.36.23-.57.23z"/></svg>